<svg id="visual" viewBox="0 0 900 450" width="900" height="450" xmlns="http://www.w3.org/2000/svg" xmlns:xlink="http://www.w3.org/1999/xlink" version="1.1"><rect x="0" y="0" width="900" height="450" fill="#001220"></rect><path d="M0 175L21.5 176C43 177 86 179 128.8 179.2C171.7 179.3 214.3 177.7 257.2 169.8C300 162 343 148 385.8 141.7C428.7 135.3 471.3 136.7 514.2 139.5C557 142.3 600 146.7 642.8 148.3C685.7 150 728.3 149 771.2 145.8C814 142.7 857 137.3 878.5 134.7L900 132L900 0L878.5 0C857 0 814 0 771.2 0C728.3 0 685.7 0 642.8 0C600 0 557 0 514.2 0C471.3 0 428.7 0 385.8 0C343 0 300 0 257.2 0C214.3 0 171.7 0 128.8 0C86 0 43 0 21.5 0L0 0Z" fill="#0066ff"></path><path d="M0 125L21.5 128.5C43 132 86 139 128.8 142.7C171.7 146.3 214.3 146.7 257.2 146.2C300 145.7 343 144.3 385.8 139.3C428.7 134.3 471.3 125.7 514.2 121.5C557 117.3 600 117.7 642.8 114C685.7 110.3 728.3 102.7 771.2 99.5C814 96.3 857 97.7 878.5 98.3L900 99L900 0L878.5 0C857 0 814 0 771.2 0C728.3 0 685.7 0 642.8 0C600 0 557 0 514.2 0C471.3 0 428.7 0 385.8 0C343 0 300 0 257.2 0C214.3 0 171.7 0 128.8 0C86 0 43 0 21.5 0L0 0Z" fill="#8d52eb"></path><path d="M0 94L21.5 95.7C43 97.3 86 100.7 128.8 106.8C171.7 113 214.3 122 257.2 117.5C300 113 343 95 385.8 92.3C428.7 89.7 471.3 102.3 514.2 108.8C557 115.3 600 115.7 642.8 112.3C685.7 109 728.3 102 771.2 96.2C814 90.3 857 85.7 878.5 83.3L900 81L900 0L878.5 0C857 0 814 0 771.2 0C728.3 0 685.7 0 642.8 0C600 0 557 0 514.2 0C471.3 0 428.7 0 385.8 0C343 0 300 0 257.2 0C214.3 0 171.7 0 128.8 0C86 0 43 0 21.5 0L0 0Z" fill="#c238cf"></path><path d="M0 86L21.5 82.7C43 79.3 86 72.7 128.8 67.8C171.7 63 214.3 60 257.2 61.2C300 62.3 343 67.7 385.8 72.8C428.7 78 471.3 83 514.2 80.2C557 77.3 600 66.7 642.8 65.3C685.7 64 728.3 72 771.2 75.7C814 79.3 857 78.7 878.5 78.3L900 78L900 0L878.5 0C857 0 814 0 771.2 0C728.3 0 685.7 0 642.8 0C600 0 557 0 514.2 0C471.3 0 428.7 0 385.8 0C343 0 300 0 257.2 0C214.3 0 171.7 0 128.8 0C86 0 43 0 21.5 0L0 0Z" fill="#e410ae"></path><path d="M0 38L21.5 41.2C43 44.3 86 50.7 128.8 51.3C171.7 52 214.3 47 257.2 49.8C300 52.7 343 63.3 385.8 68C428.7 72.7 471.3 71.3 514.2 69C557 66.7 600 63.3 642.8 63.2C685.7 63 728.3 66 771.2 62.2C814 58.3 857 47.7 878.5 42.3L900 37L900 0L878.5 0C857 0 814 0 771.2 0C728.3 0 685.7 0 642.8 0C600 0 557 0 514.2 0C471.3 0 428.7 0 385.8 0C343 0 300 0 257.2 0C214.3 0 171.7 0 128.8 0C86 0 43 0 21.5 0L0 0Z" fill="#f8008a"></path><path d="M0 26L21.5 24.5C43 23 86 20 128.8 20.5C171.7 21 214.3 25 257.2 24.8C300 24.7 343 20.3 385.8 18.8C428.7 17.3 471.3 18.7 514.2 23.7C557 28.7 600 37.3 642.8 38C685.7 38.7 728.3 31.3 771.2 27.7C814 24 857 24 878.5 24L900 24L900 0L878.5 0C857 0 814 0 771.2 0C728.3 0 685.7 0 642.8 0C600 0 557 0 514.2 0C471.3 0 428.7 0 385.8 0C343 0 300 0 257.2 0C214.3 0 171.7 0 128.8 0C86 0 43 0 21.5 0L0 0Z" fill="#ff0066"></path></svg>