<svg id="visual" viewBox="0 0 1920 1080" width="1920" height="1080" xmlns="http://www.w3.org/2000/svg" xmlns:xlink="http://www.w3.org/1999/xlink" version="1.1"><rect x="0" y="0" width="1920" height="1080" fill="#001220"></rect><path d="M0 685L45.7 680C91.3 675 182.7 665 274.2 669C365.7 673 457.3 691 548.8 697.3C640.3 703.7 731.7 698.3 823 690C914.3 681.7 1005.7 670.3 1097 684.8C1188.3 699.3 1279.7 739.7 1371.2 754.7C1462.7 769.7 1554.3 759.3 1645.8 750.2C1737.3 741 1828.7 733 1874.3 729L1920 725L1920 1081L1874.3 1081C1828.7 1081 1737.3 1081 1645.8 1081C1554.3 1081 1462.7 1081 1371.2 1081C1279.7 1081 1188.3 1081 1097 1081C1005.7 1081 914.3 1081 823 1081C731.7 1081 640.3 1081 548.8 1081C457.3 1081 365.7 1081 274.2 1081C182.7 1081 91.3 1081 45.7 1081L0 1081Z" fill="#fa7268"></path><path d="M0 769L45.7 771.2C91.3 773.3 182.7 777.7 274.2 767.8C365.7 758 457.3 734 548.8 746.8C640.3 759.7 731.7 809.3 823 826.3C914.3 843.3 1005.7 827.7 1097 823C1188.3 818.3 1279.7 824.7 1371.2 826.2C1462.7 827.7 1554.3 824.3 1645.8 810.3C1737.3 796.3 1828.7 771.7 1874.3 759.3L1920 747L1920 1081L1874.3 1081C1828.7 1081 1737.3 1081 1645.8 1081C1554.3 1081 1462.7 1081 1371.2 1081C1279.7 1081 1188.3 1081 1097 1081C1005.7 1081 914.3 1081 823 1081C731.7 1081 640.3 1081 548.8 1081C457.3 1081 365.7 1081 274.2 1081C182.7 1081 91.3 1081 45.7 1081L0 1081Z" fill="#ef5f67"></path><path d="M0 887L45.7 874C91.3 861 182.7 835 274.2 823.5C365.7 812 457.3 815 548.8 813C640.3 811 731.7 804 823 805.2C914.3 806.3 1005.7 815.7 1097 823.2C1188.3 830.7 1279.7 836.3 1371.2 830.7C1462.7 825 1554.3 808 1645.8 814.7C1737.3 821.3 1828.7 851.7 1874.3 866.8L1920 882L1920 1081L1874.3 1081C1828.7 1081 1737.3 1081 1645.8 1081C1554.3 1081 1462.7 1081 1371.2 1081C1279.7 1081 1188.3 1081 1097 1081C1005.7 1081 914.3 1081 823 1081C731.7 1081 640.3 1081 548.8 1081C457.3 1081 365.7 1081 274.2 1081C182.7 1081 91.3 1081 45.7 1081L0 1081Z" fill="#e34c67"></path><path d="M0 914L45.7 918C91.3 922 182.7 930 274.2 932C365.7 934 457.3 930 548.8 936.2C640.3 942.3 731.7 958.7 823 962.8C914.3 967 1005.7 959 1097 958.8C1188.3 958.7 1279.7 966.3 1371.2 963C1462.7 959.7 1554.3 945.3 1645.8 938.5C1737.3 931.7 1828.7 932.3 1874.3 932.7L1920 933L1920 1081L1874.3 1081C1828.7 1081 1737.3 1081 1645.8 1081C1554.3 1081 1462.7 1081 1371.2 1081C1279.7 1081 1188.3 1081 1097 1081C1005.7 1081 914.3 1081 823 1081C731.7 1081 640.3 1081 548.8 1081C457.3 1081 365.7 1081 274.2 1081C182.7 1081 91.3 1081 45.7 1081L0 1081Z" fill="#d53867"></path><path d="M0 1015L45.7 1014.2C91.3 1013.3 182.7 1011.7 274.2 1003.5C365.7 995.3 457.3 980.7 548.8 970.3C640.3 960 731.7 954 823 961.8C914.3 969.7 1005.7 991.3 1097 999.7C1188.3 1008 1279.7 1003 1371.2 1002.8C1462.7 1002.7 1554.3 1007.3 1645.8 1005.8C1737.3 1004.3 1828.7 996.7 1874.3 992.8L1920 989L1920 1081L1874.3 1081C1828.7 1081 1737.3 1081 1645.8 1081C1554.3 1081 1462.7 1081 1371.2 1081C1279.7 1081 1188.3 1081 1097 1081C1005.7 1081 914.3 1081 823 1081C731.7 1081 640.3 1081 548.8 1081C457.3 1081 365.7 1081 274.2 1081C182.7 1081 91.3 1081 45.7 1081L0 1081Z" fill="#c62368"></path></svg>