<svg id="visual" viewBox="0 0 900 450" xmlns="http://www.w3.org/2000/svg" xmlns:xlink="http://www.w3.org/1999/xlink" version="1.1"><rect x="0" y="0" width="900" height="450" fill="#001220"></rect><path d="M0 285L21.5 293C43 301 86 317 128.8 325C171.7 333 214.3 333 257.2 321.3C300 309.7 343 286.3 385.8 283.2C428.7 280 471.3 297 514.2 308.3C557 319.7 600 325.3 642.8 322.3C685.7 319.3 728.3 307.7 771.2 306.3C814 305 857 314 878.5 318.5L900 323L900 451L878.5 451C857 451 814 451 771.2 451C728.3 451 685.7 451 642.8 451C600 451 557 451 514.2 451C471.3 451 428.7 451 385.8 451C343 451 300 451 257.2 451C214.3 451 171.7 451 128.8 451C86 451 43 451 21.5 451L0 451Z" fill="#fa7268"></path><path d="M0 331L21.5 325C43 319 86 307 128.8 305.5C171.7 304 214.3 313 257.2 318.3C300 323.7 343 325.3 385.8 326.5C428.7 327.7 471.3 328.3 514.2 327C557 325.7 600 322.3 642.8 321.7C685.7 321 728.3 323 771.2 329.2C814 335.3 857 345.7 878.5 350.8L900 356L900 451L878.5 451C857 451 814 451 771.2 451C728.3 451 685.7 451 642.8 451C600 451 557 451 514.2 451C471.3 451 428.7 451 385.8 451C343 451 300 451 257.2 451C214.3 451 171.7 451 128.8 451C86 451 43 451 21.5 451L0 451Z" fill="#ef5f67"></path><path d="M0 363L21.5 359.3C43 355.7 86 348.3 128.8 346.5C171.7 344.7 214.3 348.3 257.2 351.5C300 354.7 343 357.3 385.8 360.7C428.7 364 471.3 368 514.2 365.8C557 363.7 600 355.3 642.8 355.5C685.7 355.7 728.3 364.3 771.2 364.8C814 365.3 857 357.7 878.5 353.8L900 350L900 451L878.5 451C857 451 814 451 771.2 451C728.3 451 685.7 451 642.8 451C600 451 557 451 514.2 451C471.3 451 428.7 451 385.8 451C343 451 300 451 257.2 451C214.3 451 171.7 451 128.8 451C86 451 43 451 21.5 451L0 451Z" fill="#e34c67"></path><path d="M0 379L21.5 379.8C43 380.7 86 382.3 128.8 380.2C171.7 378 214.3 372 257.2 369.2C300 366.3 343 366.7 385.8 369.3C428.7 372 471.3 377 514.2 379.7C557 382.3 600 382.7 642.8 385.5C685.7 388.3 728.3 393.7 771.2 393.2C814 392.7 857 386.3 878.5 383.2L900 380L900 451L878.5 451C857 451 814 451 771.2 451C728.3 451 685.7 451 642.8 451C600 451 557 451 514.2 451C471.3 451 428.7 451 385.8 451C343 451 300 451 257.2 451C214.3 451 171.7 451 128.8 451C86 451 43 451 21.5 451L0 451Z" fill="#d53867"></path><path d="M0 423L21.5 420.8C43 418.7 86 414.3 128.8 411.8C171.7 409.3 214.3 408.7 257.2 407.2C300 405.7 343 403.3 385.8 404.8C428.7 406.3 471.3 411.7 514.2 412.2C557 412.7 600 408.3 642.8 406C685.7 403.7 728.3 403.3 771.2 406.3C814 409.3 857 415.7 878.5 418.8L900 422L900 451L878.5 451C857 451 814 451 771.2 451C728.3 451 685.7 451 642.8 451C600 451 557 451 514.2 451C471.3 451 428.7 451 385.8 451C343 451 300 451 257.2 451C214.3 451 171.7 451 128.8 451C86 451 43 451 21.5 451L0 451Z" fill="#c62368"></path></svg>